<?xml version="1.0" encoding="UTF-8"?>
<svg width="28px" height="28px" viewBox="0 0 28 28" version="1.1" xmlns="http://www.w3.org/2000/svg" xmlns:xlink="http://www.w3.org/1999/xlink">
    <!-- Generator: Sketch 41.2 (35397) - http://www.bohemiancoding.com/sketch -->
    <title>btn_disc</title>
    <desc>Created with Sketch.</desc>
    <defs>
        <path d="M12,24 C18.627417,24 24,18.627417 24,12 C24,5.372583 18.627417,0 12,0 C5.372583,0 0,5.372583 0,12 C0,18.627417 5.372583,24 12,24 Z M14.6209432,13.0434781 L14.6209432,8.34047735 C14.6046136,8.19350878 14.5474589,8.0710347 14.4494797,7.97305552 C14.3515006,7.87507634 14.2290265,7.82608696 14.0820579,7.82608696 L7.2969995,7.82608696 C7.15003094,7.82608696 7.02755686,7.87507634 6.92957768,7.97305552 C6.8315985,8.0710347 6.7826087,8.19350878 6.7826087,8.34047735 L6.7826087,15.6644215 L8.8646664,13.5578689 L14.0820579,13.5578689 C14.2290265,13.5578689 14.3515006,13.5088795 14.4494797,13.4109003 C14.5474589,13.3129211 14.6046136,13.190447 14.6209432,13.0434781 Z M16.7030009,9.90814425 L15.6497248,9.90814425 L15.6497248,14.611145 L8.8646664,14.611145 L8.8646664,15.6644215 C8.8646664,15.81139 8.9136562,15.9338641 9.01163497,16.0318433 C9.10961457,16.1298225 9.23208823,16.1788119 9.37905721,16.1788119 L15.135334,16.1788119 L17.2173917,18.2608696 L17.2173917,10.4225351 C17.2173917,10.2755665 17.1684019,10.1530924 17.0704227,10.0551132 C16.9724436,9.95713405 16.8499695,9.90814425 16.7030009,9.90814425 Z" id="path-1"></path>
        <filter x="-50%" y="-50%" width="200%" height="200%" filterUnits="objectBoundingBox" id="filter-2">
            <feOffset dx="0.2" dy="0.6" in="SourceAlpha" result="shadowOffsetOuter1"></feOffset>
            <feGaussianBlur stdDeviation="0.75" in="shadowOffsetOuter1" result="shadowBlurOuter1"></feGaussianBlur>
            <feColorMatrix values="0 0 0 0 0   0 0 0 0 0   0 0 0 0 0  0 0 0 0.5 0" type="matrix" in="shadowBlurOuter1"></feColorMatrix>
        </filter>
    </defs>
    <g id="Page-1" stroke="none" stroke-width="1" fill="none" fill-rule="evenodd">
        <g id="leitor_destq_ic" transform="translate(-660.000000, -213.000000)">
            <g id="btn_disc" transform="translate(662.000000, 214.000000)">
                <path d="M14.6209432,13.0434781 L14.6209432,8.34047735 C14.6046136,8.19350878 14.5474589,8.0710347 14.4494797,7.97305552 C14.3515006,7.87507634 14.2290265,7.82608696 14.0820579,7.82608696 L7.2969995,7.82608696 C7.15003094,7.82608696 7.02755686,7.87507634 6.92957768,7.97305552 C6.8315985,8.0710347 6.7826087,8.19350878 6.7826087,8.34047735 L6.7826087,15.6644215 L8.8646664,13.5578689 L14.0820579,13.5578689 C14.2290265,13.5578689 14.3515006,13.5088795 14.4494797,13.4109003 C14.5474589,13.3129211 14.6046136,13.190447 14.6209432,13.0434781 Z M16.7030009,9.90814425 L15.6497248,9.90814425 L15.6497248,14.611145 L8.8646664,14.611145 L8.8646664,15.6644215 C8.8646664,15.81139 8.9136562,15.9338641 9.01163497,16.0318433 C9.10961457,16.1298225 9.23208823,16.1788119 9.37905721,16.1788119 L15.135334,16.1788119 L17.2173917,18.2608696 L17.2173917,10.4225351 C17.2173917,10.2755665 17.1684019,10.1530924 17.0704227,10.0551132 C16.9724436,9.95713405 16.8499695,9.90814425 16.7030009,9.90814425 Z" id="Combined-Shape" fill="#E3E3E4"></path>
                <g id="Combined-Shape">
                    <use fill="black" fill-opacity="1" filter="url(#filter-2)" xlink:href="#path-1"></use>
                    <use fill="#FFFFFF" fill-rule="evenodd" xlink:href="#path-1"></use>
                </g>
            </g>
        </g>
    </g>
</svg>